Coordinates
version=1
nRows=14
nColumns=40
inDegrees=yes

Units are S.I. units (second, meters, Newtons, ...)
Angles are in degrees.

endheader
time	pelvis_tilt	pelvis_list	pelvis_rotation	pelvis_tx	pelvis_ty	pelvis_tz	hip_flexion_r	hip_adduction_r	hip_rotation_r	knee_angle_r	knee_angle_r_beta	ankle_angle_r	subtalar_angle_r	mtp_angle_r	hip_flexion_l	hip_adduction_l	hip_rotation_l	knee_angle_l	knee_angle_l_beta	ankle_angle_l	subtalar_angle_l	mtp_angle_l	lumbar_extension	lumbar_bending	lumbar_rotation	arm_flex_r	arm_add_r	arm_rot_r	elbow_flex_r	pro_sup_r	wrist_flex_r	wrist_dev_r	arm_flex_l	arm_add_l	arm_rot_l	elbow_flex_l	pro_sup_l	wrist_flex_l	wrist_dev_l
     32.23750000	     -5.79972905	     -4.13421439	      0.96011890	      1.05989743	      0.92486009	      0.42178617	      5.71956565	     -2.58510936	    -15.23191404	     29.17798108	     29.17798108	     14.37389204	      1.93583091	    -12.24061113	     25.03331299	     -5.23810198	     -3.20481492	     25.72609354	     25.72609354	      9.44239003	    -14.06643984	      4.75948840	     -9.75629412	      5.51959257	      3.07326800	      3.76379399	    -15.20239748	     -1.60467622	     75.55729343	     45.20282998	      0.00000000	      0.00000000	     -6.19745907	     -8.01590157	     -8.74703566	     38.89547279	     46.31232945	      0.00000000	      0.00000000
     32.24971429	     -5.79380051	     -3.98611956	      0.88485224	      1.05981985	      0.92585978	      0.41879459	      7.13554802	     -3.53360978	    -14.72559573	     32.54489760	     32.54489760	     13.11105519	      1.04843883	    -13.48076269	     24.19618636	     -4.89555405	     -3.41139194	     25.23297289	     25.23297289	      9.77752320	    -13.90930433	      4.66224800	     -9.76634053	      5.48280586	      3.63291808	      2.08881456	    -15.36520426	     -1.61675011	     72.54955791	     45.29669142	      0.00000000	      0.00000000	     -5.09873746	     -8.05495160	     -8.86816060	     39.87514603	     46.34296889	      0.00000000	      0.00000000
     32.26192857	     -5.76538404	     -3.91842617	      0.88969688	      1.05973118	      0.92687201	      0.41587040	      8.50063363	     -4.25781012	    -14.00155959	     35.54672156	     35.54672156	      9.97735498	     -1.23699898	    -18.76839277	     23.33520313	     -4.57923846	     -3.39079361	     24.68648370	     24.68648370	      9.93041198	    -13.98258478	      4.36619570	     -9.64104950	      5.51269087	      3.08751319	      2.55371857	    -14.20161372	     -2.75884101	     64.89542722	     45.58912104	      0.00000000	      0.00000000	     -4.99125890	     -8.38430982	     -8.80774262	     42.15434468	     46.34638691	      0.00000000	      0.00000000
     32.27414286	     -5.68586447	     -3.84024497	      0.85872318	      1.05957962	      0.92763873	      0.41300998	     10.10741784	     -5.03890701	    -13.25058281	     39.02086212	     39.02086212	      6.95651748	     -3.53419729	    -22.51350240	     22.49196361	     -4.28413972	     -3.42335469	     24.29414424	     24.29414424	     10.18287478	    -13.99532564	      4.00390315	     -9.67407146	      5.54695214	      3.08989006	      1.99972358	    -14.07171924	     -2.76504990	     59.98670612	     45.73903586	      0.00000000	      0.00000000	     -4.56706897	     -8.65210483	     -8.85946461	     44.44045893	     46.37339838	      0.00000000	      0.00000000
     32.28635714	     -5.61715786	     -3.75671743	      0.84037159	      1.05935616	      0.92818951	      0.41019224	     11.95001648	     -5.81353087	    -12.43130669	     42.81851592	     42.81851592	      4.15313506	     -5.62514399	    -24.34505718	     21.68752054	     -3.98327859	     -3.44653799	     23.92840674	     23.92840674	     10.43030756	    -14.00611560	      3.60080959	     -9.67833489	      5.60523883	      2.99030105	      1.61134495	    -13.81755917	     -3.09530635	     54.76876933	     45.90795479	      0.00000000	      0.00000000	     -4.13957679	     -8.97849185	     -8.73990692	     46.71898789	     46.39092817	      0.00000000	      0.00000000
     32.29857143	     -5.53946041	     -3.55878750	      0.83213512	      1.05906375	      0.92850703	      0.40734052	     13.99070690	     -6.76879788	    -11.69808677	     46.89354400	     46.89354400	      1.62546585	     -7.05100634	    -24.36287344	     20.89776976	     -3.57603912	     -3.54708747	     23.61165521	     23.61165521	     10.81961222	    -13.87404375	      3.42099906	     -9.70245215	      5.57638959	      3.24684793	     -0.01996162	    -14.15303075	     -3.06118464	     52.73160193	     45.96683235	      0.00000000	      0.00000000	     -3.02515082	     -9.19771024	     -8.86584680	     47.87083565	     46.42631665	      0.00000000	      0.00000000
     32.31078571	     -5.47657419	     -3.57410465	      0.84261389	      1.05866423	      0.92877571	      0.40478526	     16.06475897	     -7.20890923	    -10.69116120	     50.65580557	     50.65580557	     -1.65612415	     -9.70782329	    -24.80085467	     20.15745196	     -3.39800654	     -3.50292347	     23.28736856	     23.28736856	     10.95740068	    -13.95460195	      2.69116082	     -9.67942431	      5.68794613	      2.88768202	      0.63758480	    -13.50340747	     -4.38066515	     45.00174670	     46.26475163	      0.00000000	      0.00000000	     -3.13674378	     -9.85369879	     -8.14654348	     51.43150786	     46.41564010	      0.00000000	      0.00000000
     32.32300000	     -5.37303899	     -3.46530352	      0.86036466	      1.05819856	      0.92885976	      0.40222313	     18.21428252	     -7.80654059	     -9.82516017	     54.48413203	     54.48413203	     -4.49532695	    -11.61492557	    -23.63779949	     19.41726061	     -3.12132092	     -3.60165839	     23.05615836	     23.05615836	     11.25453812	    -13.80671790	      2.10193694	     -9.73938159	      5.73643821	      2.78518900	      0.08102665	    -13.43897554	     -5.22437194	     40.67630616	     46.42228490	      0.00000000	      0.00000000	     -2.59295433	    -10.34015409	     -7.85959833	     53.83412629	     46.44718113	      0.00000000	      0.00000000
     32.33521429	     -5.20576955	     -3.21578240	      0.93747911	      1.05766886	      0.92889965	      0.39950043	     20.27688563	     -8.60141006	     -9.16042786	     58.07163138	     58.07163138	     -7.26714285	    -13.24344481	    -22.50723784	     18.62925284	     -2.67065177	     -3.65016252	     22.86234323	     22.86234323	     11.68025313	    -13.59069736	      1.87772338	     -9.89107412	      5.67759848	      2.63005456	     -1.47648523	    -13.82373078	     -5.30384103	     39.35128767	     46.46319806	      0.00000000	      0.00000000	     -1.41805033	    -10.69524918	     -8.04897941	     54.86330505	     46.48873631	      0.00000000	      0.00000000
     32.34742857	     -5.07825992	     -3.26371166	      0.90780533	      1.05705979	      0.92888309	      0.39738598	     22.47934263	     -8.71714586	     -8.24394445	     61.54064182	     61.54064182	     -8.84991803	    -14.51785965	    -17.76916294	     17.95449511	     -2.66175207	     -3.95400586	     22.77964633	     22.77964633	     12.04340740	    -13.21506786	      1.06008098	    -10.03304204	      5.85671521	      3.00398302	     -2.03960259	    -13.77436853	     -6.40475646	     34.58504775	     46.67974437	      0.00000000	      0.00000000	     -0.94373118	    -11.21423801	     -7.25364656	     58.24685710	     46.49239425	      0.00000000	      0.00000000
     32.35964286	     -4.97004162	     -3.13157424	      0.94026047	      1.05644836	      0.92888266	      0.39511221	     24.66052785	     -9.08625093	     -7.56934061	     64.71913253	     64.71913253	     -9.70463141	    -15.20668009	    -12.35913849	     17.19850921	     -2.40452537	     -4.16111714	     22.50147280	     22.50147280	     12.32676769	    -12.88985321	      0.43136150	    -10.12868513	      5.86877308	      2.61886570	     -2.55302003	    -13.75461179	     -8.00524337	     31.20418002	     46.87083121	      0.00000000	      0.00000000	     -0.46930483	    -11.82471976	     -6.96801586	     60.67678776	     46.54475490	      0.00000000	      0.00000000
     32.37185714	     -4.84222962	     -2.98288849	      0.96557160	      1.05578771	      0.92894312	      0.39294916	     26.72521446	     -9.42171025	     -7.01638401	     67.46060981	     67.46060981	    -10.15685944	    -15.81805933	     -7.32528873	     16.40984523	     -2.13789572	     -4.37850001	     22.20033961	     22.20033961	     12.66554186	    -12.49996596	     -0.00545718	    -10.27752506	      5.86425971	      2.58247417	     -3.61211217	    -13.83287592	     -9.80700313	     28.99361351	     47.01633468	      0.00000000	      0.00000000	      0.43069346	    -12.17509974	     -7.04174387	     62.58914251	     46.64274647	      0.00000000	      0.00000000
     32.38407143	     -4.68467999	     -2.84251036	      0.97613257	      1.05512270	      0.92912637	      0.39093790	     28.60820763	     -9.66920350	     -6.57713261	     69.66797619	     69.66797619	    -10.46418685	    -16.57552755	     -3.41433408	     15.57719270	     -1.90558403	     -4.66899716	     21.88563399	     21.88563399	     13.04399760	    -11.98668739	     -0.35283127	    -10.50267156	      5.86898263	      2.54174516	     -4.82534376	    -14.03108800	    -11.18647339	     27.47042352	     47.11383587	      0.00000000	      0.00000000	      1.27225438	    -12.55238615	     -6.94542021	     64.61263763	     46.72747375	      0.00000000	      0.00000000
     32.39628571	     -4.52356325	     -2.72885546	      0.97490620	      1.05449362	      0.92940965	      0.38906848	     30.29938922	     -9.86068816	     -6.31520028	     71.31840852	     71.31840852	    -10.79167923	    -17.40494309	     -1.39088758	     14.69410619	     -1.70575659	     -4.94767629	     21.49176627	     21.49176627	     13.42419649	    -11.43668314	     -0.57640107	    -10.74160177	      5.88453051	      2.65553134	     -6.26723062	    -14.34069876	    -11.73669392	     26.52060154	     47.16119411	      0.00000000	      0.00000000	      2.26113688	    -12.77035743	     -7.06460129	     66.50328577	     46.79567850	      0.00000000	      0.00000000
